# xmcd
#
# Track frame offsets:
#	150
#	20979
#	47170
#	66026
#	81371
#	105250
#	121804
#	139860
#	157319
#
# Disc length: 2515 seconds
#
# Revision: 16
# Processed by: cddbd v1.5.2PL0 Copyright (c) Steve Scherf et al.
# Submitted via: Jack! The Knife 20 Magnifico
#
DISCID=7b09d109
DTITLE=Dio - The Last In Line
DYEAR=1984
DGENRE=Metal
TTITLE0=We Rock
TTITLE1=The Last In Line
TTITLE2=Breathless
TTITLE3=I Speed At Night
TTITLE4=One Night In The City
TTITLE5=Evil Eyes
TTITLE6=Mystery
TTITLE7=Eat Your Heart Out
TTITLE8=Egypt (The Chains Are On)
EXTD=Ronnie James Dio
EXTT0=Ronnie James Dio
EXTT1=Bain, Campbell, Dio
EXTT2=Campbell, Dio
EXTT3=Appice, Bain, Campbell, Dio
EXTT4=Appice, Bain, Campbell, Dio
EXTT5=Ronnie James Dio
EXTT6=Bain, Dio
EXTT7=Appice, Bain, Campbell, Dio
EXTT8=Appice, Bain, Campbell, Dio
PLAYORDER=
